<?xml version="1.0" standalone="no"?>
<!DOCTYPE svg PUBLIC "-//W3C//DTD SVG 20010904//EN"
 "http://www.w3.org/TR/2001/REC-SVG-20010904/DTD/svg10.dtd">
<svg version="1.0" xmlns="http://www.w3.org/2000/svg"
 width="50.000000pt" height="50.000000pt" viewBox="0 0 50.000000 50.000000"
 preserveAspectRatio="xMidYMid meet">

<g transform="translate(0.000000,50.000000) scale(0.100000,-0.100000)"
fill="#000000" stroke="none">
<path d="M214 476 c-61 -27 -68 -108 -13 -148 l29 -22 0 -148 c0 -141 1 -148
20 -148 19 0 20 7 20 148 l0 148 29 22 c57 42 46 128 -20 151 -18 6 -32 11
-33 11 -1 -1 -15 -7 -32 -14z"/>
<path d="M128 463 c-15 -17 -18 -43 -20 -169 l-2 -149 -3 144 c-4 142 -4 143
-23 126 -18 -16 -20 -33 -22 -144 l-2 -126 -3 119 c-4 117 -4 118 -23 101 -17
-16 -20 -31 -20 -115 0 -88 2 -98 23 -118 20 -19 35 -22 100 -22 70 0 77 2 77
20 0 16 -7 20 -30 20 l-30 0 -2 166 c-3 159 -4 165 -20 147z"/>
<path d="M350 317 l0 -167 -30 0 c-23 0 -30 -4 -30 -20 0 -18 7 -20 78 -20 69
0 81 3 100 23 19 21 22 35 22 119 0 82 -3 97 -20 113 -19 17 -19 16 -23 -101
l-3 -119 -2 126 c-2 111 -4 128 -22 144 -19 17 -19 16 -23 -126 l-3 -144 -2
151 c-2 137 -4 153 -22 169 -20 18 -20 17 -20 -148z"/>
<path d="M85 80 c14 -15 31 -20 72 -20 46 0 53 2 53 20 0 18 -7 20 -72 20 -70
0 -71 0 -53 -20z"/>
<path d="M290 80 c0 -17 7 -20 51 -20 36 0 58 6 76 20 l26 20 -77 0 c-69 0
-76 -2 -76 -20z"/>
<path d="M135 30 c10 -11 31 -20 47 -20 21 0 28 5 28 20 0 17 -7 20 -47 20
-45 0 -46 0 -28 -20z"/>
<path d="M290 30 c0 -27 50 -27 75 0 18 20 17 20 -28 20 -40 0 -47 -3 -47 -20z"/>
</g>
</svg>
